<?xml version="1.0" encoding="UTF-8" standalone="no"?><!DOCTYPE svg PUBLIC "-//W3C//DTD SVG 1.1//EN" "http://www.w3.org/Graphics/SVG/1.1/DTD/svg11.dtd"><svg width="100%" height="100%" viewBox="0 0 180 180" version="1.1" xmlns="http://www.w3.org/2000/svg" xmlns:xlink="http://www.w3.org/1999/xlink" xml:space="preserve" xmlns:serif="http://www.serif.com/" style="fill-rule:evenodd;clip-rule:evenodd;stroke-linecap:round;stroke-linejoin:round;stroke-miterlimit:1.5;"><g><path d="M74.311,35.536l0,86.182" style="fill:none;stroke:#2ce6d6;stroke-opacity:0.180392;stroke-width:8.5px;"/><path d="M112.311,46.536l0,23.182" style="fill:none;stroke:#2ce6d6;stroke-opacity:0.180392;stroke-width:8.5px;"/><path d="M92.936,124.663l-18.814,-3.322l-46.4,11.359l0,-86.371l46.4,-10.672l38.266,10.672l41.838,-10.672l0,40.591" style="fill:none;stroke:url(#_Linear1);stroke-width:8.5px;"/><ellipse cx="130.014" cy="107.669" rx="20.822" ry="21.939" style="fill:none;stroke:#2ce6d6;stroke-width:8.5px;"/><path d="M146.12,122.597l13.808,12.611" style="fill:none;stroke:#2ce6d6;stroke-width:8.5px;"/><path d="M67.968,70.547c0,-2.342 -0.829,-4.342 -2.486,-6c-1.658,-1.657 -3.657,-2.486 -6,-2.486c-2.342,0 -4.342,0.829 -5.999,2.486c-1.658,1.658 -2.486,3.658 -2.486,6c0,2.342 0.828,4.342 2.486,6c1.657,1.657 3.657,2.486 5.999,2.486c2.343,0 4.342,-0.829 6,-2.486c1.657,-1.658 2.486,-3.658 2.486,-6Zm8.485,0c0,2.409 -0.364,4.386 -1.094,5.933l-12.065,25.656c-0.354,0.729 -0.878,1.304 -1.574,1.724c-0.697,0.419 -1.442,0.629 -2.238,0.629c-0.795,0 -1.541,-0.21 -2.237,-0.629c-0.696,-0.42 -1.21,-0.995 -1.542,-1.724l-12.098,-25.656c-0.729,-1.547 -1.094,-3.524 -1.094,-5.933c0,-4.685 1.657,-8.684 4.972,-11.999c3.315,-3.315 7.314,-4.972 11.999,-4.972c4.685,0 8.685,1.657 11.999,4.972c3.315,3.315 4.972,7.314 4.972,11.999Z" style="fill:#ea44be;fill-rule:nonzero;"/><path d="M89.705,91.444c0,-1.294 -0.458,-2.399 -1.374,-3.314c-0.916,-0.916 -2.02,-1.374 -3.315,-1.374c-1.294,0 -2.399,0.458 -3.314,1.374c-0.916,0.915 -1.374,2.02 -1.374,3.314c0,1.294 0.458,2.399 1.374,3.315c0.915,0.915 2.02,1.373 3.314,1.373c1.295,0 2.399,-0.458 3.315,-1.373c0.916,-0.916 1.374,-2.021 1.374,-3.315Zm4.688,0c0,1.331 -0.202,2.424 -0.605,3.278l-6.666,14.174c-0.195,0.403 -0.485,0.721 -0.869,0.953c-0.385,0.232 -0.797,0.348 -1.237,0.348c-0.439,0 -0.851,-0.116 -1.236,-0.348c-0.384,-0.232 -0.668,-0.55 -0.851,-0.953l-6.684,-14.174c-0.403,-0.854 -0.605,-1.947 -0.605,-3.278c0,-2.588 0.916,-4.798 2.747,-6.629c1.831,-1.831 4.041,-2.747 6.629,-2.747c2.589,0 4.798,0.916 6.63,2.747c1.831,1.831 2.747,4.041 2.747,6.629Z" style="fill:#ea44be;fill-rule:nonzero;"/></g><defs><linearGradient id="_Linear1" x1="0" y1="0" x2="1" y2="0" gradientUnits="userSpaceOnUse" gradientTransform="matrix(90.5031,0,0,94.0437,43.7224,82.6786)"><stop offset="0" style="stop-color:#2ce6d6;stop-opacity:1"/><stop offset="1" style="stop-color:#6a85e3;stop-opacity:1"/></linearGradient></defs></svg>