<?xml version="1.0" encoding="UTF-8" standalone="no"?><!DOCTYPE svg PUBLIC "-//W3C//DTD SVG 1.1//EN" "http://www.w3.org/Graphics/SVG/1.1/DTD/svg11.dtd"><svg width="100%" height="100%" viewBox="0 0 180 180" version="1.1" xmlns="http://www.w3.org/2000/svg" xmlns:xlink="http://www.w3.org/1999/xlink" xml:space="preserve" xmlns:serif="http://www.serif.com/" style="fill-rule:evenodd;clip-rule:evenodd;stroke-linecap:round;stroke-linejoin:round;stroke-miterlimit:1.5;"><g><g><g><path d="M81.254,27.467l-16.051,0l0,75.733c0,0 -1.293,14.326 13.237,14.326c14.53,0 15.47,-14.326 15.47,-14.326l57.142,0c0,0 1.203,14.326 -15.628,14.326" style="fill:none;stroke:#6991e4;stroke-width:8.5px;"/><path d="M133.688,117.726l-53.736,0" style="fill:none;stroke:#6991e4;stroke-width:8.5px;"/><path d="M137.079,101.205l0,-21.028" style="fill:none;stroke:#6991e4;stroke-width:8.5px;"/></g><path d="M82.472,71.426l9.746,0" style="fill:none;stroke:#2ce6d6;stroke-width:8.5px;"/><path d="M82.472,85.426l36.746,0" style="fill:none;stroke:#2ce6d6;stroke-width:8.5px;"/></g><g><g><path d="M51.254,58.467l-16.051,0l0,75.733c0,0 -1.293,14.326 13.237,14.326c14.53,0 15.47,-14.326 15.47,-14.326l57.142,0c0,0 1.203,14.326 -15.628,14.326" style="fill:none;stroke:#6991e4;stroke-width:8.5px;"/><path d="M103.688,148.726l-53.736,0" style="fill:none;stroke:#6991e4;stroke-width:8.5px;"/><path d="M107.079,132.205l0,-1.028" style="fill:none;stroke:#6991e4;stroke-width:8.5px;"/></g><path d="M49.472,116.426l2.746,0" style="fill:none;stroke:#2ce6d6;stroke-opacity:0.422816;stroke-width:8.5px;"/><path d="M49.472,102.426l2.746,0" style="fill:none;stroke:#2ce6d6;stroke-opacity:0.422816;stroke-width:8.5px;"/><path d="M49.472,87.426l2.746,0" style="fill:none;stroke:#2ce6d6;stroke-opacity:0.422816;stroke-width:8.5px;"/></g><circle cx="121.434" cy="41.67" r="31.306" style="fill:#ea44be;"/><path d="M134.408,35.609c0,0.447 -0.156,0.826 -0.469,1.139l-12.12,12.12l-2.277,2.277c-0.313,0.313 -0.692,0.469 -1.138,0.469c-0.447,0 -0.826,-0.156 -1.139,-0.469l-2.277,-2.277l-6.06,-6.06c-0.312,-0.312 -0.469,-0.692 -0.469,-1.138c0,-0.447 0.157,-0.826 0.469,-1.139l2.277,-2.276c0.312,-0.313 0.692,-0.469 1.138,-0.469c0.447,0 0.826,0.156 1.139,0.469l4.922,4.938l10.982,-10.999c0.312,-0.312 0.692,-0.468 1.138,-0.468c0.446,0 0.826,0.156 1.138,0.468l2.277,2.277c0.313,0.313 0.469,0.692 0.469,1.138Z" style="fill:#fff;fill-rule:nonzero;"/></g></svg>