<?xml version="1.0" encoding="utf-8"?>
<!-- Generator: Adobe Illustrator 22.1.0, SVG Export Plug-In . SVG Version: 6.00 Build 0)  -->
<svg version="1.1" id="Layer_1" xmlns:figma="http://www.figma.com/figma/ns"
	 xmlns="http://www.w3.org/2000/svg" xmlns:xlink="http://www.w3.org/1999/xlink" x="0px" y="0px" viewBox="0 0 206.6 23.9"
	 style="enable-background:new 0 0 206.6 23.9;" xml:space="preserve">
<title>Logo</title>
<g>
	<path d="M3.4,23.9c-0.7-0.1-1.5-0.3-2.1-0.6v-1c1.5,0.5,2.9,0.8,4.3,0.8c1.8,0,3.1-0.4,4-1.2c0.9-0.8,1.4-2,1.4-3.6
		c0-0.9-0.1-1.7-0.4-2.3c-0.3-0.6-0.8-1.1-1.4-1.6s-1.5-0.8-2.5-1.2l-0.8-0.3c-1.6-0.6-2.8-1.3-3.6-2.2S1,8.5,1,7.1
		c0-1.8,0.6-3.2,1.7-4.2c1.1-1,2.7-1.5,4.8-1.5c0.6,0,1.3,0,1.9,0.1c0.7,0.1,1.3,0.2,1.7,0.4v1C10,2.6,8.7,2.4,7.4,2.4
		c-1.8,0-3.1,0.4-4,1.2S2.1,5.5,2.1,7c0,0.9,0.1,1.6,0.4,2.2c0.3,0.6,0.7,1.1,1.3,1.5c0.6,0.4,1.4,0.8,2.5,1.2l0.8,0.3
		c1.6,0.6,2.9,1.3,3.7,2.3c0.8,1,1.2,2.2,1.2,3.7c0,1.9-0.6,3.4-1.7,4.4c-1.1,1-2.7,1.5-4.8,1.5C4.8,24.1,4.1,24.1,3.4,23.9z"/>
	<path d="M19.2,23.9V2.7h-6.7v-1H27v1h-6.7v21.2H19.2z"/>
	<path d="M31,22.3c-1.1-1.2-1.6-3.2-1.6-5.8V1.7h1v15c0,2.2,0.4,3.9,1.3,4.9s2.3,1.6,4.3,1.6s3.4-0.5,4.3-1.6s1.3-2.7,1.3-4.9v-15h1
		v14.8c0,1.8-0.2,3.2-0.7,4.3c-0.5,1.1-1.2,2-2.1,2.5c-1,0.6-2.2,0.8-3.8,0.8C33.8,24.1,32.1,23.5,31,22.3z"/>
	<path d="M47.5,23.8v-22c1.6-0.3,3-0.4,4.2-0.4c3.1,0,5.4,0.9,6.9,2.8c1.5,1.8,2.3,4.7,2.3,8.5c0,2.6-0.4,4.8-1.1,6.5
		c-0.7,1.7-1.8,2.9-3.2,3.6c-1.4,0.8-3.2,1.2-5.3,1.2C50.2,24,49,23.9,47.5,23.8z M56.1,22c1.2-0.7,2.2-1.8,2.8-3.3
		c0.6-1.5,0.9-3.5,0.9-5.9c0-2.4-0.3-4.4-0.9-5.9s-1.5-2.6-2.7-3.3c-1.2-0.7-2.8-1.1-4.7-1.1c-0.9,0-2,0.1-3.1,0.2v20.2
		c0.8,0.1,1.7,0.2,2.8,0.2C53.2,23,54.8,22.7,56.1,22z"/>
	<path d="M65.9,22.9h10.2v1H64.9V1.7h11.1v1h-10V12h8.7v1h-8.7V22.9z"/>
	<path d="M91.9,1.7h1v22.2h-1.1L80,3.4v20.5h-1V1.7h1.1l11.7,20.5V1.7z"/>
	<path d="M102.1,23.9V2.7h-6.7v-1h14.5v1h-6.7v21.2H102.1z"/>
	<path d="M112,23.9V1.7h2.9v9.5h9.3V1.7h2.9v22.2h-2.9v-10H115v10H112z"/>
	<path d="M132.5,21.4c-1.4-1.8-2.2-4.7-2.2-8.7c0-3.9,0.7-6.8,2.2-8.7c1.4-1.8,3.5-2.7,6.1-2.7s4.6,0.9,6.1,2.7
		c1.4,1.8,2.2,4.7,2.2,8.7c0,4-0.7,6.8-2.2,8.7c-1.4,1.8-3.5,2.7-6.1,2.7S134,23.2,132.5,21.4z M141.4,20.8c0.8-0.5,1.3-1.5,1.7-2.8
		s0.6-3,0.6-5.2c0-2.2-0.2-4-0.6-5.3c-0.4-1.3-1-2.3-1.7-2.8c-0.8-0.6-1.7-0.8-2.8-0.8s-2,0.3-2.8,0.8c-0.8,0.6-1.3,1.5-1.7,2.8
		s-0.6,3-0.6,5.2c0,2.2,0.2,4,0.6,5.3c0.4,1.3,1,2.3,1.7,2.8c0.8,0.6,1.7,0.8,2.8,0.8S140.6,21.4,141.4,20.8z"/>
	<path d="M153.5,23.9V4.3h-6.4V1.7h15.7v2.7h-6.4v19.5H153.5z"/>
	<path d="M167.9,21.3h9.7v2.6H165V1.7h12.5v2.6h-9.6v6.9h8.1v2.6h-8.1V21.3z"/>
	<path d="M180.3,23.9V1.7h2.9v19.5h9.2v2.7H180.3z"/>
	<path d="M196,23.9c-0.9-0.1-1.6-0.3-2.4-0.6v-2.5c1.7,0.5,3.3,0.8,4.8,0.8c1.5,0,2.6-0.3,3.3-0.9c0.7-0.6,1.1-1.5,1.1-2.7
		c0-0.7-0.1-1.2-0.3-1.7s-0.6-0.9-1.1-1.2c-0.5-0.3-1.2-0.7-2.1-1l-1.2-0.4c-1.6-0.5-2.8-1.3-3.6-2.3c-0.8-1-1.3-2.3-1.3-3.8
		c0-1.3,0.3-2.4,0.8-3.4c0.6-0.9,1.4-1.7,2.5-2.2s2.5-0.8,4.1-0.8c0.7,0,1.5,0,2.2,0.1s1.4,0.2,2,0.4v2.5c-1.2-0.4-2.5-0.6-3.9-0.6
		c-3.1,0-4.7,1.2-4.7,3.5c0,0.6,0.1,1.2,0.3,1.6s0.6,0.8,1,1.1c0.5,0.3,1.1,0.6,2,0.9l1.2,0.4c1.7,0.6,3,1.4,3.8,2.3
		c0.9,1,1.3,2.3,1.3,3.9c0,1.3-0.3,2.5-0.9,3.5c-0.6,1-1.4,1.7-2.5,2.2c-1.1,0.5-2.4,0.8-4,0.8C197.7,24.1,196.8,24.1,196,23.9z"/>
</g>
</svg>
