<?xml version="1.0" encoding="UTF-8" standalone="no"?><!DOCTYPE svg PUBLIC "-//W3C//DTD SVG 1.1//EN" "http://www.w3.org/Graphics/SVG/1.1/DTD/svg11.dtd"><svg width="100%" height="100%" viewBox="0 0 180 180" version="1.1" xmlns="http://www.w3.org/2000/svg" xmlns:xlink="http://www.w3.org/1999/xlink" xml:space="preserve" xmlns:serif="http://www.serif.com/" style="fill-rule:evenodd;clip-rule:evenodd;stroke-linecap:round;stroke-linejoin:round;stroke-miterlimit:1.5;"><ellipse cx="104.304" cy="66.251" rx="49.494" ry="48.531" style="fill:#ea44be;"/><path d="M28.506,92.744l0,29.333l52.124,24.535l62.887,-17.176c0,0 10.093,-2.351 9.097,-11.782c-0.997,-9.431 -9.097,-8.715 -9.097,-8.715l-57.896,0l-27.149,-16.195l-29.966,0Z" style="fill:#fff;stroke:url(#_Linear1);stroke-width:8.5px;"/><path d="M75.372,125.484l31.912,0c0,0 7.532,-0.415 7.348,-7.36c-0.244,-9.143 -7.348,-8.976 -7.348,-8.976" style="fill:none;stroke:#56b3dd;stroke-width:8.5px;"/><path d="M111.936,71.819c-1.056,2.64 -3.072,3.792 -5.904,3.792c-3.312,0 -5.424,-1.44 -6.384,-4.416l6.816,0l0,-3.792l-7.44,0c-0.048,-0.48 -0.048,-0.96 -0.048,-1.488l0,-0.768l7.488,0l0,-3.792l-6.96,0c0.816,-2.928 2.736,-4.56 6.144,-4.56c4.08,0 5.664,2.4 6.24,4.512l4.896,-1.344c-1.2,-5.376 -5.712,-7.68 -11.184,-7.68c-6.336,0 -10.368,3.024 -11.616,9.072l-2.256,0l0,3.792l1.824,0c0,0.24 0,0.528 0,0.768l0.048,1.488l-1.872,0l0,3.792l2.352,0c1.488,6.192 5.76,9.024 11.76,9.024c6.48,0 9.792,-3.504 11.04,-7.104l-4.944,-1.296Z" style="fill:#fff;fill-rule:nonzero;"/><defs><linearGradient id="_Linear1" x1="0" y1="0" x2="1" y2="0" gradientUnits="userSpaceOnUse" gradientTransform="matrix(124.177,0,0,53.868,28.506,119.678)"><stop offset="0" style="stop-color:#2ce6d6;stop-opacity:1"/><stop offset="1" style="stop-color:#6991e4;stop-opacity:1"/></linearGradient></defs></svg>